<?xml version="1.0" encoding="UTF-8" standalone="no"?>
<svg
   width="1400"
   height="1170"
   viewBox="0 0 449.79166 360"
   version="1.1"
   id="svg1"
   xml:space="preserve"
   sodipodi:docname="bannerLogo2.svg"
   inkscape:version="1.4.2 (f4327f4, 2025-05-13)"
   xmlns:inkscape="http://www.inkscape.org/namespaces/inkscape"
   xmlns:sodipodi="http://sodipodi.sourceforge.net/DTD/sodipodi-0.dtd"
   xmlns="http://www.w3.org/2000/svg"
   xmlns:svg="http://www.w3.org/2000/svg"><sodipodi:namedview
   id="namedview1"
   pagecolor="#ffffff"
   bordercolor="#000000"
   borderopacity="0.25"
   inkscape:showpageshadow="2"
   inkscape:pageopacity="0.0"
   inkscape:pagecheckerboard="0"
   inkscape:deskcolor="#d1d1d1"
   inkscape:zoom="0.68974359"
   inkscape:cx="699.53532"
   inkscape:cy="585"
   inkscape:window-width="1920"
   inkscape:window-height="1009"
   inkscape:window-x="-8"
   inkscape:window-y="-8"
   inkscape:window-maximized="1"
   inkscape:current-layer="text1" />
  <defs
   id="defs1" />
  <g
   id="layer1">
    <g
   id="g1"
   transform="matrix(0.26458333,0,0,0.26458333,-2.4692021,2.9507662)">
      <path
   d="M 530.748,141.752 411,261.503 V 620.252 979 H 497.5 584 V 620 261 H 779.748 975.497 L 856,141.5 736.503,22 H 693.5 650.497 L 530.748,141.752"
   stroke="none"
   fill="#555555"
   fill-rule="evenodd"
   id="path1"
   style="fill:#3d2929;fill-opacity:1" />
      <path
   d="M 139,141.5 19.503,261 h 133 133 L 405,141.5 524.497,22 h -133 -133 L 139,141.5"
   stroke="none"
   fill="#C93133"
   fill-rule="evenodd"
   id="path2" />
    </g>
    <path
   style="font-weight:bold;font-size:109.361px;font-family:'League Spartan';-inkscape-font-specification:'League Spartan Bold';fill:#3d2929;stroke-width:0.264583"
   d="m 196.25716,260.61981 v -7.2725 q -0.49212,1.09361 -2.5153,3.17146 -1.9685,2.07786 -5.24933,3.77296 -3.28083,1.64041 -7.65527,1.64041 -6.56166,0 -11.48291,-3.17146 -4.92124,-3.22615 -7.65527,-8.58484 -2.73402,-5.41337 -2.73402,-11.97503 0,-6.56166 2.73402,-11.92035 2.73403,-5.41337 7.65527,-8.63952 4.92125,-3.22615 11.48291,-3.22615 4.2104,0 7.38187,1.36701 3.17147,1.31233 5.13996,3.17147 1.9685,1.80446 2.73403,3.33551 v -6.56166 h 16.51351 v 44.89269 z m -20.99731,-22.419 q 0,3.06211 1.42169,5.52273 1.42169,2.40594 3.77296,3.77295 2.40594,1.36701 5.304,1.36701 3.00743,0 5.30401,-1.36701 2.29658,-1.36701 3.60892,-3.77295 1.36701,-2.46062 1.36701,-5.52273 0,-3.06211 -1.36701,-5.46805 -1.31234,-2.46063 -3.60892,-3.82764 -2.29658,-1.42169 -5.30401,-1.42169 -2.89806,0 -5.304,1.42169 -2.35127,1.36701 -3.77296,3.82764 -1.42169,2.40594 -1.42169,5.46805 z m 68.02263,-23.78602 q 4.42912,0 8.09271,0.76553 3.66359,0.71084 6.12422,1.64041 2.5153,0.92957 3.22615,1.53106 l -5.41337,9.7878 q -1.03893,-0.76552 -3.88232,-1.96849 -2.7887,-1.20297 -6.23358,-1.20297 -2.62466,0 -4.42912,0.8202 -1.80445,0.76553 -1.80445,2.46063 0,1.69509 1.9685,2.73402 2.02317,0.98425 5.79613,1.74978 3.28083,0.65616 6.67102,2.07786 3.39019,1.42169 5.63209,4.21039 2.29658,2.73403 2.29658,7.32719 0,4.70252 -2.02318,7.76463 -2.02318,3.06211 -5.35869,4.75721 -3.33551,1.69509 -7.21782,2.35126 -3.88232,0.71084 -7.54591,0.71084 -5.13997,0 -8.9676,-0.92956 -3.77296,-0.92957 -6.12422,-2.13254 -2.35126,-1.20297 -3.28083,-1.91382 l 5.35869,-10.9361 q 1.42169,1.20297 4.64784,2.73402 3.22615,1.47638 6.83507,1.47638 3.49955,0 5.41336,-1.03893 1.91382,-1.03893 1.91382,-2.73403 0,-1.36701 -0.92957,-2.18722 -0.92956,-0.8202 -2.62466,-1.42169 -1.6951,-0.60149 -4.10104,-1.09361 -2.18722,-0.43744 -4.64784,-1.36701 -2.46062,-0.92957 -4.64784,-2.51531 -2.18722,-1.64041 -3.55424,-4.10103 -1.36701,-2.46063 -1.36701,-5.96018 0,-4.4838 2.89807,-7.43655 2.89807,-2.95274 7.49123,-4.42912 4.59316,-1.53105 9.78781,-1.53105 z m 57.52392,1.31233 h 18.81009 l -21.16135,21.43476 23.34857,23.45793 h -19.24754 l -17.33372,-18.04456 v 18.04456 h -16.62287 v -75.24037 h 16.62287 v 45.9863 z"
   id="text5"
   aria-label="ask" />
    <path
   style="font-weight:bold;font-size:109.361px;font-family:'League Spartan';-inkscape-font-specification:'League Spartan Bold';fill:#C93133;stroke-width:0.264583"
   d="m 366.72021,188.44155 h 16.34947 v 44.34589 q 0,8.91292 -3.49955,15.47458 -3.49955,6.50698 -10.00653,10.11589 -6.50698,3.55423 -15.52926,3.55423 -9.07697,0 -15.63863,-3.55423 -6.56166,-3.60891 -10.06121,-10.11589 -3.44487,-6.56166 -3.44487,-15.47458 v -44.34589 h 16.29479 v 43.471 q 0,4.92124 1.53105,8.31144 1.58574,3.39019 4.4838,5.13996 2.89807,1.6951 6.83507,1.6951 3.88231,0 6.7257,-1.6951 2.84338,-1.74977 4.37444,-5.13996 1.58573,-3.3902 1.58573,-8.31144 z m 54.18831,-1.31233 q 6.7257,0 11.75631,1.47637 5.0306,1.47638 8.09271,3.11679 3.06211,1.64042 3.71828,2.18722 l -7.874,13.178 q -0.87488,-0.65616 -3.00742,-1.91382 -2.07786,-1.25765 -4.97593,-2.2419 -2.84339,-0.98424 -5.96017,-0.98424 -4.2104,0 -6.83507,1.53105 -2.56998,1.47637 -2.56998,4.42912 0,2.02318 1.36701,3.66359 1.4217,1.58574 4.26508,3.06211 2.89807,1.42169 7.32719,3.11679 4.04636,1.47637 7.60059,3.49955 3.55423,2.02318 6.23357,4.81189 2.73403,2.73402 4.31976,6.34293 1.58574,3.60892 1.58574,8.20208 0,5.46805 -2.2419,9.51441 -2.2419,3.99167 -6.12422,6.61634 -3.82763,2.62466 -8.74888,3.88231 -4.86656,1.31233 -10.11589,1.31233 -7.43655,0 -13.34204,-1.69509 -5.85082,-1.6951 -9.45973,-3.66359 -3.60891,-1.9685 -4.31976,-2.62467 l 8.1474,-13.7248 q 0.65616,0.49212 2.5153,1.58573 1.91382,1.09361 4.64784,2.29658 2.73403,1.14829 5.79613,1.9685 3.11679,0.82021 6.12422,0.82021 5.03061,0 7.54591,-1.91382 2.5153,-1.9685 2.5153,-5.13997 0,-2.35126 -1.58573,-4.2104 -1.58574,-1.85913 -4.75721,-3.49955 -3.17146,-1.69509 -7.92867,-3.55423 -4.7572,-1.91382 -8.91292,-4.64784 -4.10104,-2.73403 -6.67102,-6.83507 -2.56998,-4.10103 -2.56998,-10.17057 0,-6.06953 3.39019,-10.49866 3.44487,-4.4838 9.02228,-6.88974 5.63209,-2.40594 12.02971,-2.40594 z"
   id="text2"
   aria-label="US" />
  </g>

  <g
   id="text1"
   style="font-size:32px;font-family:Geologica, system-ui, '-apple-system', sans-serif;text-anchor:middle;white-space:pre;inline-size:459.945;fill:#3d2929"
   transform="matrix(0.9737755,0,0,1,5.8976463,0)"
   aria-label="Make task managing easier "><path
     d="m 20.418592,330 v -22.4 h 3.472 l 9.136,14.864 -1.392,0.016 8.8,-14.88 h 3.408 V 330 h -3.504 l 0.048,-17.632 0.688,0.24 -7.616,12.56 h -2.624 l -7.76,-12.56 0.576,-0.24 0.048,17.632 z m 33.183986,0.48 q -1.648,0 -2.896,-0.608 -1.248,-0.624 -1.952,-1.744 -0.688,-1.136 -0.688,-2.672 0,-1.296 0.656,-2.336 0.656,-1.056 2.032,-1.744 1.392,-0.688 3.568,-0.912 2.176,-0.24 5.232,0.064 l 0.064,2.432 q -2.176,-0.304 -3.744,-0.256 -1.568,0.048 -2.576,0.4 -0.992,0.336 -1.472,0.912 -0.464,0.56 -0.464,1.296 0,1.152 0.816,1.776 0.832,0.624 2.272,0.624 1.232,0 2.208,-0.448 0.976,-0.448 1.536,-1.264 0.576,-0.816 0.576,-1.92 v -4.208 q 0,-1.056 -0.448,-1.824 -0.448,-0.784 -1.36,-1.216 -0.912,-0.432 -2.272,-0.432 -1.248,0 -2.464,0.384 -1.216,0.368 -2.32,1.168 l -0.992,-2.592 q 1.488,-1.008 3.104,-1.424 1.616,-0.416 3.104,-0.416 2.208,0 3.776,0.704 1.584,0.688 2.432,2.096 0.848,1.392 0.848,3.52 V 330 h -3.168 v -1.872 q -0.8,1.136 -2.224,1.744 -1.424,0.608 -3.184,0.608 z M 66.866579,330 v -23.04 h 3.52 v 13.632 l 6.24,-6.432 h 4.16 l -5.6,6.064 6.416,9.776 h -4.208 l -4.768,-7.488 -2.24,2.272 V 330 Z m 24.768011,0.48 q -2.56,0 -4.496,-1.04 -1.936,-1.056 -3.024,-2.944 -1.072,-1.888 -1.072,-4.384 0,-1.824 0.624,-3.36 0.624,-1.552 1.76,-2.688 1.136,-1.136 2.656,-1.76 1.536,-0.624 3.344,-0.624 1.968,0 3.504,0.704 1.536,0.688 2.544,1.936 1.024,1.248 1.44,2.928 0.432,1.664 0.144,3.616 h -12.64 q -0.032,1.424 0.624,2.496 0.656,1.056 1.872,1.648 1.232,0.592 2.896,0.592 1.344,0 2.592,-0.4 1.264,-0.416 2.288,-1.216 l 1.36,2.528 q -0.768,0.624 -1.856,1.072 -1.088,0.432 -2.272,0.656 -1.184,0.24 -2.288,0.24 z m -5.008,-10.208 h 8.976 q -0.048,-1.792 -1.152,-2.816 -1.088,-1.024 -3.104,-1.024 -1.952,0 -3.248,1.024 -1.28,1.024 -1.472,2.816 z m 30.59203,10.208 q -2.32,0 -3.712,-1.344 -1.392,-1.344 -1.392,-4.112 v -15.488 h 3.52 v 4.624 h 4.4 v 2.912 h -4.4 v 7.184 q 0,1.664 0.624,2.352 0.64,0.672 1.792,0.672 0.56,0 1.056,-0.128 0.496,-0.128 0.896,-0.336 l 0.624,2.848 q -0.688,0.352 -1.584,0.576 -0.88,0.24 -1.824,0.24 z m -8.576,-13.408 v -2.912 h 3.936 v 2.912 z m 20.06402,13.408 q -1.648,0 -2.896,-0.608 -1.248,-0.624 -1.952,-1.744 -0.688,-1.136 -0.688,-2.672 0,-1.296 0.656,-2.336 0.656,-1.056 2.032,-1.744 1.392,-0.688 3.568,-0.912 2.176,-0.24 5.232,0.064 l 0.064,2.432 q -2.176,-0.304 -3.744,-0.256 -1.568,0.048 -2.576,0.4 -0.992,0.336 -1.472,0.912 -0.464,0.56 -0.464,1.296 0,1.152 0.816,1.776 0.832,0.624 2.272,0.624 1.232,0 2.208,-0.448 0.976,-0.448 1.536,-1.264 0.576,-0.816 0.576,-1.92 v -4.208 q 0,-1.056 -0.448,-1.824 -0.448,-0.784 -1.36,-1.216 -0.912,-0.432 -2.272,-0.432 -1.248,0 -2.464,0.384 -1.216,0.368 -2.32,1.168 l -0.992,-2.592 q 1.488,-1.008 3.104,-1.424 1.616,-0.416 3.104,-0.416 2.208,0 3.776,0.704 1.584,0.688 2.432,2.096 0.848,1.392 0.848,3.52 V 330 h -3.168 v -1.872 q -0.8,1.136 -2.224,1.744 -1.424,0.608 -3.184,0.608 z m 18.608,-0.016 q -1.968,0 -3.68,-0.56 -1.712,-0.56 -2.88,-1.504 l 1.328,-2.576 q 1.104,0.864 2.48,1.36 1.392,0.496 2.736,0.496 1.552,0 2.416,-0.544 0.864,-0.544 0.864,-1.52 0,-0.928 -0.752,-1.36 -0.736,-0.448 -2.816,-0.928 -2.992,-0.624 -4.352,-1.76 -1.344,-1.152 -1.344,-3.184 0,-1.424 0.784,-2.512 0.8,-1.104 2.192,-1.728 1.392,-0.624 3.216,-0.624 1.776,0 3.344,0.512 1.568,0.496 2.72,1.408 l -1.248,2.592 q -0.592,-0.528 -1.376,-0.912 -0.784,-0.384 -1.664,-0.592 -0.864,-0.224 -1.728,-0.224 -1.344,0 -2.192,0.528 -0.832,0.512 -0.832,1.424 0,0.944 0.8,1.392 0.8,0.448 2.752,0.896 3.072,0.672 4.4,1.792 1.328,1.12 1.328,3.104 0,1.52 -0.816,2.656 -0.816,1.12 -2.288,1.744 -1.456,0.624 -3.392,0.624 z M 157.77863,330 v -23.04 h 3.52 v 13.632 l 6.24,-6.432 h 4.16 l -5.6,6.064 6.416,9.776 h -4.208 l -4.768,-7.488 -2.24,2.272 V 330 Z m 25.69604,0 v -15.84 h 3.52 v 2.176 q 0.64,-0.928 1.472,-1.504 0.832,-0.592 1.76,-0.864 0.928,-0.288 1.888,-0.288 1.936,0 3.216,0.848 1.296,0.848 1.824,2.176 1.184,-1.728 2.752,-2.368 1.568,-0.656 3.152,-0.656 2.192,0 3.504,0.864 1.312,0.864 1.888,2.224 0.592,1.36 0.592,2.8 V 330 h -3.52 v -9.408 q 0,-1.648 -0.912,-2.656 -0.896,-1.024 -2.624,-1.024 -1.136,0 -2.032,0.496 -0.896,0.496 -1.424,1.376 -0.512,0.864 -0.512,2 V 330 h -3.52 v -9.408 q 0,-1.648 -0.896,-2.656 -0.896,-1.024 -2.64,-1.024 -1.12,0 -2.032,0.496 -0.896,0.496 -1.424,1.376 -0.512,0.864 -0.512,2 V 330 Z m 34.70402,0.48 q -1.648,0 -2.896,-0.608 -1.248,-0.624 -1.952,-1.744 -0.688,-1.136 -0.688,-2.672 0,-1.296 0.656,-2.336 0.656,-1.056 2.032,-1.744 1.392,-0.688 3.568,-0.912 2.176,-0.24 5.232,0.064 l 0.064,2.432 q -2.176,-0.304 -3.744,-0.256 -1.568,0.048 -2.576,0.4 -0.992,0.336 -1.472,0.912 -0.464,0.56 -0.464,1.296 0,1.152 0.816,1.776 0.832,0.624 2.272,0.624 1.232,0 2.208,-0.448 0.976,-0.448 1.536,-1.264 0.576,-0.816 0.576,-1.92 v -4.208 q 0,-1.056 -0.448,-1.824 -0.448,-0.784 -1.36,-1.216 -0.912,-0.432 -2.272,-0.432 -1.248,0 -2.464,0.384 -1.216,0.368 -2.32,1.168 l -0.992,-2.592 q 1.488,-1.008 3.104,-1.424 1.616,-0.416 3.104,-0.416 2.208,0 3.776,0.704 1.584,0.688 2.432,2.096 0.848,1.392 0.848,3.52 V 330 h -3.168 v -1.872 q -0.8,1.136 -2.224,1.744 -1.424,0.608 -3.184,0.608 z m 13.264,-0.48 v -15.84 h 3.52 v 2.016 q 0.992,-1.328 2.304,-1.904 1.312,-0.592 2.72,-0.592 2.176,0 3.6,0.864 1.424,0.864 2.112,2.224 0.704,1.36 0.704,2.8 V 330 h -3.52 v -9.344 q 0,-1.696 -1.024,-2.72 -1.008,-1.024 -2.816,-1.024 -1.184,0 -2.112,0.528 -0.912,0.528 -1.44,1.472 -0.528,0.928 -0.528,2.176 V 330 Z m 24.09598,0.48 q -1.648,0 -2.896,-0.608 -1.248,-0.624 -1.952,-1.744 -0.688,-1.136 -0.688,-2.672 0,-1.296 0.656,-2.336 0.656,-1.056 2.032,-1.744 1.392,-0.688 3.568,-0.912 2.176,-0.24 5.232,0.064 l 0.064,2.432 q -2.176,-0.304 -3.744,-0.256 -1.568,0.048 -2.576,0.4 -0.992,0.336 -1.472,0.912 -0.464,0.56 -0.464,1.296 0,1.152 0.816,1.776 0.832,0.624 2.272,0.624 1.232,0 2.208,-0.448 0.976,-0.448 1.536,-1.264 0.576,-0.816 0.576,-1.92 v -4.208 q 0,-1.056 -0.448,-1.824 -0.448,-0.784 -1.36,-1.216 -0.912,-0.432 -2.272,-0.432 -1.248,0 -2.464,0.384 -1.216,0.368 -2.32,1.168 l -0.992,-2.592 q 1.488,-1.008 3.104,-1.424 1.616,-0.416 3.104,-0.416 2.208,0 3.776,0.704 1.584,0.688 2.432,2.096 0.848,1.392 0.848,3.52 V 330 h -3.168 v -1.872 q -0.8,1.136 -2.224,1.744 -1.424,0.608 -3.184,0.608 z m 19.50401,6.72 q -1.776,0 -3.2,-0.32 -1.424,-0.304 -2.432,-0.896 -0.992,-0.592 -1.52,-1.424 -0.528,-0.832 -0.528,-1.856 0,-0.816 0.432,-1.536 0.448,-0.72 1.312,-1.232 0.88,-0.528 2.144,-0.784 -0.944,-0.48 -1.408,-1.088 -0.448,-0.608 -0.448,-1.392 0,-0.672 0.384,-1.264 0.4,-0.608 1.12,-1.072 0.736,-0.48 1.728,-0.784 0.992,-0.304 2.192,-0.352 l 0.768,1.536 q -0.992,-0.016 -1.696,0.16 -0.688,0.16 -1.072,0.464 -0.368,0.288 -0.368,0.704 0,0.544 0.624,0.8 0.624,0.24 1.76,0.336 l 2.72,0.208 q 2,0.16 3.408,0.656 1.424,0.496 2.176,1.392 0.768,0.896 0.768,2.272 0,1.168 -0.64,2.16 -0.624,1.008 -1.808,1.744 -1.168,0.736 -2.8,1.152 -1.632,0.416 -3.616,0.416 z m 0.352,-2.432 q 2.384,0 3.744,-0.72 1.376,-0.704 1.376,-1.84 0,-0.864 -0.912,-1.344 -0.912,-0.48 -2.784,-0.608 l -2.912,-0.224 q -1.024,0.08 -1.776,0.384 -0.736,0.304 -1.12,0.784 -0.384,0.48 -0.384,1.088 0,0.736 0.576,1.296 0.576,0.56 1.648,0.864 1.072,0.32 2.544,0.32 z m -0.112,-9.792 q -1.984,0 -3.568,-0.752 -1.568,-0.752 -2.48,-2.032 -0.912,-1.28 -0.912,-2.864 0,-1.584 0.912,-2.864 0.928,-1.28 2.496,-2.032 1.584,-0.752 3.552,-0.752 1.968,0 3.536,0.752 1.568,0.752 2.48,2.032 0.928,1.28 0.928,2.864 0,1.568 -0.912,2.848 -0.912,1.28 -2.48,2.048 -1.568,0.752 -3.552,0.752 z m 0,-2.64 q 1.088,0 1.936,-0.368 0.848,-0.384 1.328,-1.056 0.48,-0.688 0.48,-1.584 0,-1.344 -1.056,-2.176 -1.04,-0.848 -2.688,-0.848 -1.104,0 -1.952,0.384 -0.832,0.384 -1.312,1.072 -0.48,0.672 -0.48,1.568 0,1.328 1.04,2.176 1.056,0.832 2.704,0.832 z m 2.464,-5.392 -1.312,-2.448 8.496,-0.336 -0.032,2.912 z M 287.95465,330 v -15.84 h 3.52 V 330 Z m 1.76,-18.672 q -0.944,0 -1.632,-0.608 -0.688,-0.608 -0.688,-1.6 0,-0.976 0.688,-1.584 0.688,-0.624 1.632,-0.624 0.944,0 1.632,0.624 0.688,0.608 0.688,1.584 0,0.992 -0.688,1.6 -0.688,0.608 -1.632,0.608 z M 296.37067,330 v -15.84 h 3.52 v 2.016 q 0.992,-1.328 2.304,-1.904 1.312,-0.592 2.72,-0.592 2.176,0 3.6,0.864 1.424,0.864 2.112,2.224 0.704,1.36 0.704,2.8 V 330 h -3.52 v -9.344 q 0,-1.696 -1.024,-2.72 -1.008,-1.024 -2.816,-1.024 -1.184,0 -2.112,0.528 -0.912,0.528 -1.44,1.472 -0.528,0.928 -0.528,2.176 V 330 Z m 25.93598,7.2 q -1.776,0 -3.2,-0.32 -1.424,-0.304 -2.432,-0.896 -0.992,-0.592 -1.52,-1.424 -0.528,-0.832 -0.528,-1.856 0,-0.816 0.432,-1.536 0.448,-0.72 1.312,-1.232 0.88,-0.528 2.144,-0.784 -0.944,-0.48 -1.408,-1.088 -0.448,-0.608 -0.448,-1.392 0,-0.672 0.384,-1.264 0.4,-0.608 1.12,-1.072 0.736,-0.48 1.728,-0.784 0.992,-0.304 2.192,-0.352 l 0.768,1.536 q -0.992,-0.016 -1.696,0.16 -0.688,0.16 -1.072,0.464 -0.368,0.288 -0.368,0.704 0,0.544 0.624,0.8 0.624,0.24 1.76,0.336 l 2.72,0.208 q 2,0.16 3.408,0.656 1.424,0.496 2.176,1.392 0.768,0.896 0.768,2.272 0,1.168 -0.64,2.16 -0.624,1.008 -1.808,1.744 -1.168,0.736 -2.8,1.152 -1.632,0.416 -3.616,0.416 z m 0.352,-2.432 q 2.384,0 3.744,-0.72 1.376,-0.704 1.376,-1.84 0,-0.864 -0.912,-1.344 -0.912,-0.48 -2.784,-0.608 l -2.912,-0.224 q -1.024,0.08 -1.776,0.384 -0.736,0.304 -1.12,0.784 -0.384,0.48 -0.384,1.088 0,0.736 0.576,1.296 0.576,0.56 1.648,0.864 1.072,0.32 2.544,0.32 z m -0.112,-9.792 q -1.984,0 -3.568,-0.752 -1.568,-0.752 -2.48,-2.032 -0.912,-1.28 -0.912,-2.864 0,-1.584 0.912,-2.864 0.928,-1.28 2.496,-2.032 1.584,-0.752 3.552,-0.752 1.968,0 3.536,0.752 1.568,0.752 2.48,2.032 0.928,1.28 0.928,2.864 0,1.568 -0.912,2.848 -0.912,1.28 -2.48,2.048 -1.568,0.752 -3.552,0.752 z m 0,-2.64 q 1.088,0 1.936,-0.368 0.848,-0.384 1.328,-1.056 0.48,-0.688 0.48,-1.584 0,-1.344 -1.056,-2.176 -1.04,-0.848 -2.688,-0.848 -1.104,0 -1.952,0.384 -0.832,0.384 -1.312,1.072 -0.48,0.672 -0.48,1.568 0,1.328 1.04,2.176 1.056,0.832 2.704,0.832 z m 2.464,-5.392 -1.312,-2.448 8.496,-0.336 -0.032,2.912 z"
     id="path3" /><path
     style="fill:#c93133"
     d="m 350.29066,330.48 q -2.56,0 -4.496,-1.04 -1.936,-1.056 -3.024,-2.944 -1.072,-1.888 -1.072,-4.384 0,-1.824 0.624,-3.36 0.624,-1.552 1.76,-2.688 1.136,-1.136 2.656,-1.76 1.536,-0.624 3.344,-0.624 1.968,0 3.504,0.704 1.536,0.688 2.544,1.936 1.024,1.248 1.44,2.928 0.432,1.664 0.144,3.616 h -12.64 q -0.032,1.424 0.624,2.496 0.656,1.056 1.872,1.648 1.232,0.592 2.896,0.592 1.344,0 2.592,-0.4 1.264,-0.416 2.288,-1.216 l 1.36,2.528 q -0.768,0.624 -1.856,1.072 -1.088,0.432 -2.272,0.656 -1.184,0.24 -2.288,0.24 z m -5.008,-10.208 h 8.976 q -0.048,-1.792 -1.152,-2.816 -1.088,-1.024 -3.104,-1.024 -1.952,0 -3.248,1.024 -1.28,1.024 -1.472,2.816 z m 20.496,10.208 q -1.648,0 -2.896,-0.608 -1.248,-0.624 -1.952,-1.744 -0.688,-1.136 -0.688,-2.672 0,-1.296 0.656,-2.336 0.656,-1.056 2.032,-1.744 1.392,-0.688 3.568,-0.912 2.176,-0.24 5.232,0.064 l 0.064,2.432 q -2.176,-0.304 -3.744,-0.256 -1.568,0.048 -2.576,0.4 -0.992,0.336 -1.472,0.912 -0.464,0.56 -0.464,1.296 0,1.152 0.816,1.776 0.832,0.624 2.272,0.624 1.232,0 2.208,-0.448 0.976,-0.448 1.536,-1.264 0.576,-0.816 0.576,-1.92 v -4.208 q 0,-1.056 -0.448,-1.824 -0.448,-0.784 -1.36,-1.216 -0.912,-0.432 -2.272,-0.432 -1.248,0 -2.464,0.384 -1.216,0.368 -2.32,1.168 l -0.992,-2.592 q 1.488,-1.008 3.104,-1.424 1.616,-0.416 3.104,-0.416 2.208,0 3.776,0.704 1.584,0.688 2.432,2.096 0.848,1.392 0.848,3.52 V 330 h -3.168 v -1.872 q -0.8,1.136 -2.224,1.744 -1.424,0.608 -3.184,0.608 z m 18.60801,-0.016 q -1.968,0 -3.68,-0.56 -1.712,-0.56 -2.88,-1.504 l 1.328,-2.576 q 1.104,0.864 2.48,1.36 1.392,0.496 2.736,0.496 1.552,0 2.416,-0.544 0.864,-0.544 0.864,-1.52 0,-0.928 -0.752,-1.36 -0.736,-0.448 -2.816,-0.928 -2.992,-0.624 -4.352,-1.76 -1.344,-1.152 -1.344,-3.184 0,-1.424 0.784,-2.512 0.8,-1.104 2.192,-1.728 1.392,-0.624 3.216,-0.624 1.776,0 3.344,0.512 1.568,0.496 2.72,1.408 l -1.248,2.592 q -0.592,-0.528 -1.376,-0.912 -0.784,-0.384 -1.664,-0.592 -0.864,-0.224 -1.728,-0.224 -1.344,0 -2.192,0.528 -0.832,0.512 -0.832,1.424 0,0.944 0.8,1.392 0.8,0.448 2.752,0.896 3.072,0.672 4.4,1.792 1.328,1.12 1.328,3.104 0,1.52 -0.816,2.656 -0.816,1.12 -2.288,1.744 -1.456,0.624 -3.392,0.624 z M 394.85065,330 v -15.84 h 3.52 V 330 Z m 1.76,-18.672 q -0.944,0 -1.632,-0.608 -0.688,-0.608 -0.688,-1.6 0,-0.976 0.688,-1.584 0.688,-0.624 1.632,-0.624 0.944,0 1.632,0.624 0.688,0.608 0.688,1.584 0,0.992 -0.688,1.6 -0.688,0.608 -1.632,0.608 z m 13.88801,19.152 q -2.56,0 -4.496,-1.04 -1.936,-1.056 -3.024,-2.944 -1.072,-1.888 -1.072,-4.384 0,-1.824 0.624,-3.36 0.624,-1.552 1.76,-2.688 1.136,-1.136 2.656,-1.76 1.536,-0.624 3.344,-0.624 1.968,0 3.504,0.704 1.536,0.688 2.544,1.936 1.024,1.248 1.44,2.928 0.432,1.664 0.144,3.616 h -12.64 q -0.032,1.424 0.624,2.496 0.656,1.056 1.872,1.648 1.232,0.592 2.896,0.592 1.344,0 2.592,-0.4 1.264,-0.416 2.288,-1.216 l 1.36,2.528 q -0.768,0.624 -1.856,1.072 -1.088,0.432 -2.272,0.656 -1.184,0.24 -2.288,0.24 z m -5.008,-10.208 h 8.976 q -0.048,-1.792 -1.152,-2.816 -1.088,-1.024 -3.104,-1.024 -1.952,0 -3.248,1.024 -1.28,1.024 -1.472,2.816 z M 421.58667,330 v -15.84 h 3.52 v 2.192 q 0.896,-1.488 2.176,-2.08 1.28,-0.608 2.752,-0.608 0.48,0 0.912,0.048 0.432,0.048 0.832,0.144 l -0.464,3.632 q -0.48,-0.144 -0.976,-0.224 -0.496,-0.08 -0.992,-0.08 -1.84,0 -3.04,1.136 -1.2,1.12 -1.2,3.056 V 330 Z"
     id="path4" /></g>
</svg>
