<?xml version="1.0" encoding="UTF-8" standalone="no"?>
<svg
   width="1400"
   height="1170"
   viewBox="0 0 449.79166 360"
   version="1.1"
   id="svg1"
   xml:space="preserve"
   xmlns="http://www.w3.org/2000/svg"
   xmlns:svg="http://www.w3.org/2000/svg">
  <defs id="defs1" />
  <g id="layer1">
    <g id="g1" transform="matrix(0.26458333,0,0,0.26458333,-2.4692021,2.9507662)">
      <path
         d="M 530.748,141.752 411,261.503 V 620.252 979 H 497.5 584 V 620 261 H 779.748 975.497 L 856,141.5 736.503,22 H 693.5 650.497 L 530.748,141.752"
         stroke="none"
         fill="#555555"
         fill-rule="evenodd"
         id="path1"
         style="fill:#3d2929;fill-opacity:1" />
      <path
         d="M 139,141.5 19.503,261 h 133 133 L 405,141.5 524.497,22 h -133 -133 L 139,141.5"
         stroke="none"
         fill="#C93133"
         fill-rule="evenodd"
         id="path2" />
    </g>
    <path
       style="font-weight:bold;font-size:109.361px;font-family:'League Spartan';-inkscape-font-specification:'League Spartan Bold';fill:#3d2929;stroke-width:0.264583"
       d="m 196.25716,260.61981 v -7.2725 q -0.49212,1.09361 -2.5153,3.17146 -1.9685,2.07786 -5.24933,3.77296 -3.28083,1.64041 -7.65527,1.64041 -6.56166,0 -11.48291,-3.17146 -4.92124,-3.22615 -7.65527,-8.58484 -2.73402,-5.41337 -2.73402,-11.97503 0,-6.56166 2.73402,-11.92035 2.73403,-5.41337 7.65527,-8.63952 4.92125,-3.22615 11.48291,-3.22615 4.2104,0 7.38187,1.36701 3.17147,1.31233 5.13996,3.17147 1.9685,1.80446 2.73403,3.33551 v -6.56166 h 16.51351 v 44.89269 z m -20.99731,-22.419 q 0,3.06211 1.42169,5.52273 1.42169,2.40594 3.77296,3.77295 2.40594,1.36701 5.304,1.36701 3.00743,0 5.30401,-1.36701 2.29658,-1.36701 3.60892,-3.77295 1.36701,-2.46062 1.36701,-5.52273 0,-3.06211 -1.36701,-5.46805 -1.31234,-2.46063 -3.60892,-3.82764 -2.29658,-1.42169 -5.30401,-1.42169 -2.89806,0 -5.304,1.42169 -2.35127,1.36701 -3.77296,3.82764 -1.42169,2.40594 -1.42169,5.46805 z m 68.02263,-23.78602 q 4.42912,0 8.09271,0.76553 3.66359,0.71084 6.12422,1.64041 2.5153,0.92957 3.22615,1.53106 l -5.41337,9.7878 q -1.03893,-0.76552 -3.88232,-1.96849 -2.7887,-1.20297 -6.23358,-1.20297 -2.62466,0 -4.42912,0.8202 -1.80445,0.76553 -1.80445,2.46063 0,1.69509 1.9685,2.73402 2.02317,0.98425 5.79613,1.74978 3.28083,0.65616 6.67102,2.07786 3.39019,1.42169 5.63209,4.21039 2.29658,2.73403 2.29658,7.32719 0,4.70252 -2.02318,7.76463 -2.02318,3.06211 -5.35869,4.75721 -3.33551,1.69509 -7.21782,2.35126 -3.88232,0.71084 -7.54591,0.71084 -5.13997,0 -8.9676,-0.92956 -3.77296,-0.92957 -6.12422,-2.13254 -2.35126,-1.20297 -3.28083,-1.91382 l 5.35869,-10.9361 q 1.42169,1.20297 4.64784,2.73402 3.22615,1.47638 6.83507,1.47638 3.49955,0 5.41336,-1.03893 1.91382,-1.03893 1.91382,-2.73403 0,-1.36701 -0.92957,-2.18722 -0.92956,-0.8202 -2.62466,-1.42169 -1.6951,-0.60149 -4.10104,-1.09361 -2.18722,-0.43744 -4.64784,-1.36701 -2.46062,-0.92957 -4.64784,-2.51531 -2.18722,-1.64041 -3.55424,-4.10103 -1.36701,-2.46063 -1.36701,-5.96018 0,-4.4838 2.89807,-7.43655 2.89807,-2.95274 7.49123,-4.42912 4.59316,-1.53105 9.78781,-1.53105 z m 57.52392,1.31233 h 18.81009 l -21.16135,21.43476 23.34857,23.45793 h -19.24754 l -17.33372,-18.04456 v 18.04456 h -16.62287 v -75.24037 h 16.62287 v 45.9863 z"
       id="text5"
       aria-label="ask" />
    <path
       style="font-weight:bold;font-size:109.361px;font-family:'League Spartan';-inkscape-font-specification:'League Spartan Bold';fill:#C93133;stroke-width:0.264583"
       d="m 366.72021,188.44155 h 16.34947 v 44.34589 q 0,8.91292 -3.49955,15.47458 -3.49955,6.50698 -10.00653,10.11589 -6.50698,3.55423 -15.52926,3.55423 -9.07697,0 -15.63863,-3.55423 -6.56166,-3.60891 -10.06121,-10.11589 -3.44487,-6.56166 -3.44487,-15.47458 v -44.34589 h 16.29479 v 43.471 q 0,4.92124 1.53105,8.31144 1.58574,3.39019 4.4838,5.13996 2.89807,1.6951 6.83507,1.6951 3.88231,0 6.7257,-1.6951 2.84338,-1.74977 4.37444,-5.13996 1.58573,-3.3902 1.58573,-8.31144 z m 54.18831,-1.31233 q 6.7257,0 11.75631,1.47637 5.0306,1.47638 8.09271,3.11679 3.06211,1.64042 3.71828,2.18722 l -7.874,13.178 q -0.87488,-0.65616 -3.00742,-1.91382 -2.07786,-1.25765 -4.97593,-2.2419 -2.84339,-0.98424 -5.96017,-0.98424 -4.2104,0 -6.83507,1.53105 -2.56998,1.47637 -2.56998,4.42912 0,2.02318 1.36701,3.66359 1.4217,1.58574 4.26508,3.06211 2.89807,1.42169 7.32719,3.11679 4.04636,1.47637 7.60059,3.49955 3.55423,2.02318 6.23357,4.81189 2.73403,2.73402 4.31976,6.34293 1.58574,3.60892 1.58574,8.20208 0,5.46805 -2.2419,9.51441 -2.2419,3.99167 -6.12422,6.61634 -3.82763,2.62466 -8.74888,3.88231 -4.86656,1.31233 -10.11589,1.31233 -7.43655,0 -13.34204,-1.69509 -5.85082,-1.6951 -9.45973,-3.66359 -3.60891,-1.9685 -4.31976,-2.62467 l 8.1474,-13.7248 q 0.65616,0.49212 2.5153,1.58573 1.91382,1.09361 4.64784,2.29658 2.73403,1.14829 5.79613,1.9685 3.11679,0.82021 6.12422,0.82021 5.03061,0 7.54591,-1.91382 2.5153,-1.9685 2.5153,-5.13997 0,-2.35126 -1.58573,-4.2104 -1.58574,-1.85913 -4.75721,-3.49955 -3.17146,-1.69509 -7.92867,-3.55423 -4.7572,-1.91382 -8.91292,-4.64784 -4.10104,-2.73403 -6.67102,-6.83507 -2.56998,-4.10103 -2.56998,-10.17057 0,-6.06953 3.39019,-10.49866 3.44487,-4.4838 9.02228,-6.88974 5.63209,-2.40594 12.02971,-2.40594 z"
       id="text2"
       aria-label="US" />
  </g>

  <text 
     x="224.89" 
     y="330" 
     text-anchor="middle" 
     style="font-family:'Geologica', system-ui, -apple-system, sans-serif; font-size:32px; font-weight:400; fill:#3d2929;">
    Make task managing <tspan style="fill:#C93133;">easier</tspan>
  </text>
</svg>
