<?xml version="1.0" encoding="UTF-8" standalone="no"?>
<svg
   width="1400"
   height="1170"
   viewBox="0 0 449.79166 360"
   version="1.1"
   id="svg1"
   xml:space="preserve"
   sodipodi:docname="bannerLogo2.svg"
   inkscape:version="1.4.2 (f4327f4, 2025-05-13)"
   xmlns:inkscape="http://www.inkscape.org/namespaces/inkscape"
   xmlns:sodipodi="http://sodipodi.sourceforge.net/DTD/sodipodi-0.dtd"
   xmlns="http://www.w3.org/2000/svg"
   xmlns:svg="http://www.w3.org/2000/svg"><sodipodi:namedview
   id="namedview1"
   pagecolor="#ffffff"
   bordercolor="#000000"
   borderopacity="0.25"
   inkscape:showpageshadow="2"
   inkscape:pageopacity="0.0"
   inkscape:pagecheckerboard="0"
   inkscape:deskcolor="#d1d1d1"
   inkscape:zoom="0.68974359"
   inkscape:cx="700.26022"
   inkscape:cy="585"
   inkscape:window-width="1920"
   inkscape:window-height="1009"
   inkscape:window-x="-8"
   inkscape:window-y="-8"
   inkscape:window-maximized="1"
   inkscape:current-layer="text1" />
  <defs
   id="defs1" />
  <g
   id="layer1">
    <g
   id="g1"
   transform="matrix(0.26458333,0,0,0.26458333,-2.4692021,2.9507662)">
      <path
   d="M 530.748,141.752 411,261.503 V 620.252 979 H 497.5 584 V 620 261 H 779.748 975.497 L 856,141.5 736.503,22 H 693.5 650.497 L 530.748,141.752"
   stroke="none"
   fill="#555555"
   fill-rule="evenodd"
   id="path1"
   style="fill:#29393d;fill-opacity:1" />
      <path
   d="M 139,141.5 19.503,261 h 133 133 L 405,141.5 524.497,22 h -133 -133 L 139,141.5"
   stroke="none"
   fill="#61dafb"
   fill-rule="evenodd"
   id="path2" />
    </g>
    <path
   style="font-weight:bold;font-size:109.361px;font-family:'League Spartan';-inkscape-font-specification:'League Spartan Bold';fill:#29393d;stroke-width:0.264583"
   d="m 196.25716,260.61981 v -7.2725 q -0.49212,1.09361 -2.5153,3.17146 -1.9685,2.07786 -5.24933,3.77296 -3.28083,1.64041 -7.65527,1.64041 -6.56166,0 -11.48291,-3.17146 -4.92124,-3.22615 -7.65527,-8.58484 -2.73402,-5.41337 -2.73402,-11.97503 0,-6.56166 2.73402,-11.92035 2.73403,-5.41337 7.65527,-8.63952 4.92125,-3.22615 11.48291,-3.22615 4.2104,0 7.38187,1.36701 3.17147,1.31233 5.13996,3.17147 1.9685,1.80446 2.73403,3.33551 v -6.56166 h 16.51351 v 44.89269 z m -20.99731,-22.419 q 0,3.06211 1.42169,5.52273 1.42169,2.40594 3.77296,3.77295 2.40594,1.36701 5.304,1.36701 3.00743,0 5.30401,-1.36701 2.29658,-1.36701 3.60892,-3.77295 1.36701,-2.46062 1.36701,-5.52273 0,-3.06211 -1.36701,-5.46805 -1.31234,-2.46063 -3.60892,-3.82764 -2.29658,-1.42169 -5.30401,-1.42169 -2.89806,0 -5.304,1.42169 -2.35127,1.36701 -3.77296,3.82764 -1.42169,2.40594 -1.42169,5.46805 z m 68.02263,-23.78602 q 4.42912,0 8.09271,0.76553 3.66359,0.71084 6.12422,1.64041 2.5153,0.92957 3.22615,1.53106 l -5.41337,9.7878 q -1.03893,-0.76552 -3.88232,-1.96849 -2.7887,-1.20297 -6.23358,-1.20297 -2.62466,0 -4.42912,0.8202 -1.80445,0.76553 -1.80445,2.46063 0,1.69509 1.9685,2.73402 2.02317,0.98425 5.79613,1.74978 3.28083,0.65616 6.67102,2.07786 3.39019,1.42169 5.63209,4.21039 2.29658,2.73403 2.29658,7.32719 0,4.70252 -2.02318,7.76463 -2.02318,3.06211 -5.35869,4.75721 -3.33551,1.69509 -7.21782,2.35126 -3.88232,0.71084 -7.54591,0.71084 -5.13997,0 -8.9676,-0.92956 -3.77296,-0.92957 -6.12422,-2.13254 -2.35126,-1.20297 -3.28083,-1.91382 l 5.35869,-10.9361 q 1.42169,1.20297 4.64784,2.73402 3.22615,1.47638 6.83507,1.47638 3.49955,0 5.41336,-1.03893 1.91382,-1.03893 1.91382,-2.73403 0,-1.36701 -0.92957,-2.18722 -0.92956,-0.8202 -2.62466,-1.42169 -1.6951,-0.60149 -4.10104,-1.09361 -2.18722,-0.43744 -4.64784,-1.36701 -2.46062,-0.92957 -4.64784,-2.51531 -2.18722,-1.64041 -3.55424,-4.10103 -1.36701,-2.46063 -1.36701,-5.96018 0,-4.4838 2.89807,-7.43655 2.89807,-2.95274 7.49123,-4.42912 4.59316,-1.53105 9.78781,-1.53105 z m 57.52392,1.31233 h 18.81009 l -21.16135,21.43476 23.34857,23.45793 h -19.24754 l -17.33372,-18.04456 v 18.04456 h -16.62287 v -75.24037 h 16.62287 v 45.9863 z"
   id="text5"
   aria-label="ask" />
    <path
   style="font-weight:bold;font-size:109.361px;font-family:'League Spartan';-inkscape-font-specification:'League Spartan Bold';fill:#61dafb;stroke-width:0.264583"
   d="m 366.72021,188.44155 h 16.34947 v 44.34589 q 0,8.91292 -3.49955,15.47458 -3.49955,6.50698 -10.00653,10.11589 -6.50698,3.55423 -15.52926,3.55423 -9.07697,0 -15.63863,-3.55423 -6.56166,-3.60891 -10.06121,-10.11589 -3.44487,-6.56166 -3.44487,-15.47458 v -44.34589 h 16.29479 v 43.471 q 0,4.92124 1.53105,8.31144 1.58574,3.39019 4.4838,5.13996 2.89807,1.6951 6.83507,1.6951 3.88231,0 6.7257,-1.6951 2.84338,-1.74977 4.37444,-5.13996 1.58573,-3.3902 1.58573,-8.31144 z m 54.18831,-1.31233 q 6.7257,0 11.75631,1.47637 5.0306,1.47638 8.09271,3.11679 3.06211,1.64042 3.71828,2.18722 l -7.874,13.178 q -0.87488,-0.65616 -3.00742,-1.91382 -2.07786,-1.25765 -4.97593,-2.2419 -2.84339,-0.98424 -5.96017,-0.98424 -4.2104,0 -6.83507,1.53105 -2.56998,1.47637 -2.56998,4.42912 0,2.02318 1.36701,3.66359 1.4217,1.58574 4.26508,3.06211 2.89807,1.42169 7.32719,3.11679 4.04636,1.47637 7.60059,3.49955 3.55423,2.02318 6.23357,4.81189 2.73403,2.73402 4.31976,6.34293 1.58574,3.60892 1.58574,8.20208 0,5.46805 -2.2419,9.51441 -2.2419,3.99167 -6.12422,6.61634 -3.82763,2.62466 -8.74888,3.88231 -4.86656,1.31233 -10.11589,1.31233 -7.43655,0 -13.34204,-1.69509 -5.85082,-1.6951 -9.45973,-3.66359 -3.60891,-1.9685 -4.31976,-2.62467 l 8.1474,-13.7248 q 0.65616,0.49212 2.5153,1.58573 1.91382,1.09361 4.64784,2.29658 2.73403,1.14829 5.79613,1.9685 3.11679,0.82021 6.12422,0.82021 5.03061,0 7.54591,-1.91382 2.5153,-1.9685 2.5153,-5.13997 0,-2.35126 -1.58573,-4.2104 -1.58574,-1.85913 -4.75721,-3.49955 -3.17146,-1.69509 -7.92867,-3.55423 -4.7572,-1.91382 -8.91292,-4.64784 -4.10104,-2.73403 -6.67102,-6.83507 -2.56998,-4.10103 -2.56998,-10.17057 0,-6.06953 3.39019,-10.49866 3.44487,-4.4838 9.02228,-6.88974 5.63209,-2.40594 12.02971,-2.40594 z"
   id="text2"
   aria-label="US" />
  </g>

  <g
   id="text1"
   style="font-size:31.5613px;font-family:Geologica, system-ui, '-apple-system', sans-serif;text-anchor:middle;fill:#29393d;stroke-width:0.986289"
   transform="scale(0.98628945,1.0139011)"
   aria-label="Make task managing easier "><path
     d="M 26.583499,325.47552 V 303.38261 H 30.0079 l 9.010751,14.66023 -1.372917,0.0158 8.679358,-14.67601 h 3.361278 v 22.09291 h -3.455962 l 0.04734,-17.39027 0.678568,0.23671 -7.511589,12.38781 h -2.588027 l -7.653615,-12.38781 0.568103,-0.23671 0.04734,17.39027 z m 32.729055,0.47342 q -1.625407,0 -2.856298,-0.59966 -1.23089,-0.61545 -1.925239,-1.72009 -0.678568,-1.12043 -0.678568,-2.63537 0,-1.27823 0.647007,-2.30397 0.647006,-1.04153 2.004142,-1.7201 1.372917,-0.67856 3.519085,-0.89949 2.146169,-0.23671 5.160273,0.0631 l 0.06312,2.39866 q -2.146168,-0.29983 -3.692672,-0.25249 -1.546503,0.0473 -2.540684,0.39451 -0.978401,0.3314 -1.45182,0.8995 -0.457639,0.55232 -0.457639,1.27823 0,1.13621 0.804813,1.75166 0.820594,0.61544 2.240852,0.61544 1.21511,0 2.17773,-0.44186 0.96262,-0.44185 1.514943,-1.24667 0.568103,-0.80481 0.568103,-1.89368 v -4.15031 q 0,-1.04152 -0.441858,-1.79899 -0.441858,-0.77325 -1.341355,-1.19933 -0.899498,-0.42608 -2.240853,-0.42608 -1.230891,0 -2.43022,0.37874 -1.199329,0.36295 -2.288194,1.15199 l -0.978401,-2.55647 q 1.467601,-0.99418 3.061447,-1.40448 1.593845,-0.41029 3.061446,-0.41029 2.177729,0 3.724233,0.69434 1.562285,0.67857 2.398659,2.06727 0.836374,1.37292 0.836374,3.47174 v 10.02071 h -3.124568 v -1.84633 q -0.789033,1.12042 -2.193511,1.72009 -1.404478,0.59966 -3.140349,0.59966 z m 13.082158,-0.47342 v -22.72413 h 3.471743 v 13.44511 l 6.154454,-6.34382 h 4.102969 l -5.523228,5.98087 6.328041,9.64197 H 82.77838 l -4.702634,-7.38534 -2.209291,2.24085 v 5.14449 z m 24.428459,0.47342 q -2.524904,0 -4.434363,-1.02574 -1.909459,-1.04152 -2.982543,-2.90364 -1.057304,-1.86211 -1.057304,-4.3239 0,-1.79899 0.615446,-3.31393 0.615445,-1.53073 1.735871,-2.65115 1.120427,-1.12043 2.619588,-1.73587 1.514943,-0.61545 3.298156,-0.61545 1.94102,0 3.455958,0.69435 1.51495,0.67857 2.50913,1.90946 1.00996,1.23089 1.42026,2.88786 0.42607,1.64119 0.14202,3.56642 H 91.678679 q -0.03156,1.40448 0.615445,2.46179 0.647007,1.04152 1.846336,1.6254 1.21511,0.58389 2.856298,0.58389 1.325574,0 2.556465,-0.39452 1.246667,-0.4103 2.256637,-1.19933 l 1.34135,2.49334 q -0.75747,0.61545 -1.83055,1.05731 -1.07309,0.42608 -2.240856,0.647 -1.167769,0.23671 -2.256633,0.23671 z m -4.939344,-10.06805 h 8.852943 q -0.0473,-1.76743 -1.136205,-2.77739 -1.073084,-1.00997 -3.061446,-1.00997 -1.925239,0 -3.203472,1.00997 -1.262452,1.00996 -1.45182,2.77739 z m 30.172633,10.06805 q -2.28819,0 -3.66111,-1.32557 -1.37291,-1.32557 -1.37291,-4.05563 v -15.27567 h 3.47174 v 4.56061 h 4.33968 v 2.87208 h -4.33968 v 7.08551 q 0,1.64119 0.61544,2.31976 0.63123,0.66278 1.76744,0.66278 0.55232,0 1.04152,-0.12624 0.4892,-0.12625 0.88372,-0.33139 l 0.61544,2.80895 q -0.67857,0.34718 -1.56228,0.5681 -0.86794,0.23671 -1.799,0.23671 z m -8.45843,-13.22418 v -2.87208 h 3.88204 v 2.87208 z m 19.78896,13.22418 q -1.62541,0 -2.8563,-0.59966 -1.23089,-0.61545 -1.92524,-1.72009 -0.67857,-1.12043 -0.67857,-2.63537 0,-1.27823 0.64701,-2.30397 0.647,-1.04153 2.00414,-1.7201 1.37292,-0.67856 3.51909,-0.89949 2.14616,-0.23671 5.16027,0.0631 l 0.0631,2.39866 q -2.14617,-0.29983 -3.69267,-0.25249 -1.54651,0.0473 -2.54069,0.39451 -0.9784,0.3314 -1.45182,0.8995 -0.45763,0.55232 -0.45763,1.27823 0,1.13621 0.80481,1.75166 0.82059,0.61544 2.24085,0.61544 1.21511,0 2.17773,-0.44186 0.96262,-0.44185 1.51494,-1.24667 0.56811,-0.80481 0.56811,-1.89368 v -4.15031 q 0,-1.04152 -0.44186,-1.79899 -0.44186,-0.77325 -1.34136,-1.19933 -0.89949,-0.42608 -2.24085,-0.42608 -1.23089,0 -2.43022,0.37874 -1.19933,0.36295 -2.28819,1.15199 l -0.9784,-2.55647 q 1.4676,-0.99418 3.06144,-1.40448 1.59385,-0.41029 3.06145,-0.41029 2.17773,0 3.72423,0.69434 1.56229,0.67857 2.39866,2.06727 0.83637,1.37292 0.83637,3.47174 v 10.02071 h -3.12456 v -1.84633 q -0.78904,1.12042 -2.19351,1.72009 -1.40448,0.59966 -3.14035,0.59966 z m 18.3529,-0.0158 q -1.94102,0 -3.62955,-0.55232 -1.68853,-0.55232 -2.84052,-1.48338 l 1.3098,-2.54068 q 1.08886,0.85215 2.446,1.34135 1.37291,0.4892 2.69849,0.4892 1.53072,0 2.38288,-0.53654 0.85215,-0.53654 0.85215,-1.49916 0,-0.91528 -0.74169,-1.34136 -0.72591,-0.44186 -2.77739,-0.91528 -2.95098,-0.61544 -4.29234,-1.73587 -1.32557,-1.1362 -1.32557,-3.14035 0,-1.40447 0.77325,-2.47756 0.78903,-1.08886 2.16195,-1.70431 1.37291,-0.61544 3.17191,-0.61544 1.75165,0 3.29815,0.50498 1.54651,0.4892 2.68271,1.38869 l -1.23089,2.55647 q -0.58388,-0.52076 -1.35713,-0.8995 -0.77326,-0.37873 -1.64119,-0.58388 -0.85216,-0.22093 -1.70431,-0.22093 -1.32558,0 -2.16195,0.52076 -0.82059,0.50498 -0.82059,1.40448 0,0.93106 0.78903,1.37291 0.78903,0.44186 2.71427,0.88372 3.02989,0.66279 4.33968,1.76743 1.30979,1.10465 1.30979,3.06145 0,1.49916 -0.80481,2.61959 -0.80481,1.10464 -2.25663,1.72009 -1.43604,0.61544 -3.3455,0.61544 z m 10.32052,-0.45764 v -22.72413 h 3.47175 v 13.44511 l 6.15445,-6.34382 h 4.10297 l -5.52323,5.98087 6.32804,9.64197 h -4.15031 l -4.70263,-7.38534 -2.20929,2.24085 v 5.14449 z m 25.34377,0 v -15.62284 h 3.47174 v 2.14617 q 0.63123,-0.91528 1.45182,-1.48338 0.8206,-0.58389 1.73587,-0.85216 0.91528,-0.28405 1.86212,-0.28405 1.90946,0 3.17191,0.83638 1.27823,0.83637 1.799,2.14616 1.16776,-1.70431 2.71427,-2.33553 1.5465,-0.64701 3.10879,-0.64701 2.16194,0 3.45596,0.85216 1.29401,0.85215 1.86211,2.19351 0.58389,1.34135 0.58389,2.76161 v 10.28898 h -3.47174 v -9.27902 q 0,-1.6254 -0.8995,-2.61959 -0.88372,-1.00996 -2.58803,-1.00996 -1.12042,0 -2.00414,0.4892 -0.88372,0.4892 -1.40448,1.35714 -0.50498,0.85215 -0.50498,1.97258 v 9.08965 h -3.47174 v -9.27902 q 0,-1.6254 -0.88372,-2.61959 -0.88371,-1.00996 -2.60381,-1.00996 -1.10464,0 -2.00414,0.4892 -0.88371,0.4892 -1.40448,1.35714 -0.50498,0.85215 -0.50498,1.97258 v 9.08965 z m 34.22824,0.47342 q -1.6254,0 -2.85629,-0.59966 -1.23089,-0.61545 -1.92524,-1.72009 -0.67857,-1.12043 -0.67857,-2.63537 0,-1.27823 0.64701,-2.30397 0.647,-1.04153 2.00414,-1.7201 1.37291,-0.67856 3.51908,-0.89949 2.14617,-0.23671 5.16028,0.0631 l 0.0631,2.39866 q -2.14617,-0.29983 -3.69267,-0.25249 -1.54651,0.0473 -2.54069,0.39451 -0.9784,0.3314 -1.45182,0.8995 -0.45764,0.55232 -0.45764,1.27823 0,1.13621 0.80482,1.75166 0.82059,0.61544 2.24085,0.61544 1.21511,0 2.17773,-0.44186 0.96262,-0.44185 1.51494,-1.24667 0.5681,-0.80481 0.5681,-1.89368 v -4.15031 q 0,-1.04152 -0.44185,-1.79899 -0.44186,-0.77325 -1.34136,-1.19933 -0.8995,-0.42608 -2.24085,-0.42608 -1.23089,0 -2.43022,0.37874 -1.19933,0.36295 -2.2882,1.15199 l -0.9784,-2.55647 q 1.4676,-0.99418 3.06145,-1.40448 1.59385,-0.41029 3.06145,-0.41029 2.17773,0 3.72423,0.69434 1.56228,0.67857 2.39866,2.06727 0.83637,1.37292 0.83637,3.47174 v 10.02071 h -3.12457 v -1.84633 q -0.78903,1.12042 -2.19351,1.72009 -1.40447,0.59966 -3.14035,0.59966 z m 13.08217,-0.47342 v -15.62284 h 3.47174 v 1.98836 q 0.9784,-1.30979 2.27242,-1.87789 1.29401,-0.58389 2.68271,-0.58389 2.14617,0 3.55064,0.85216 1.40448,0.85215 2.08305,2.19351 0.69435,1.34135 0.69435,2.76161 v 10.28898 h -3.47175 v -9.21589 q 0,-1.67275 -1.00996,-2.68272 -0.99418,-1.00996 -2.77739,-1.00996 -1.16777,0 -2.08305,0.52076 -0.89949,0.52077 -1.42026,1.45182 -0.52076,0.91528 -0.52076,2.14617 v 8.78982 z m 23.76564,0.47342 q -1.6254,0 -2.85629,-0.59966 -1.2309,-0.61545 -1.92524,-1.72009 -0.67857,-1.12043 -0.67857,-2.63537 0,-1.27823 0.647,-2.30397 0.64701,-1.04153 2.00415,-1.7201 1.37291,-0.67856 3.51908,-0.89949 2.14617,-0.23671 5.16027,0.0631 l 0.0631,2.39866 q -2.14617,-0.29983 -3.69267,-0.25249 -1.54651,0.0473 -2.54069,0.39451 -0.9784,0.3314 -1.45182,0.8995 -0.45764,0.55232 -0.45764,1.27823 0,1.13621 0.80481,1.75166 0.8206,0.61544 2.24086,0.61544 1.21511,0 2.17773,-0.44186 0.96262,-0.44185 1.51494,-1.24667 0.5681,-0.80481 0.5681,-1.89368 v -4.15031 q 0,-1.04152 -0.44186,-1.79899 -0.44185,-0.77325 -1.34135,-1.19933 -0.8995,-0.42608 -2.24085,-0.42608 -1.23089,0 -2.43022,0.37874 -1.19933,0.36295 -2.2882,1.15199 l -0.9784,-2.55647 q 1.4676,-0.99418 3.06145,-1.40448 1.59384,-0.41029 3.06144,-0.41029 2.17773,0 3.72424,0.69434 1.56228,0.67857 2.39866,2.06727 0.83637,1.37292 0.83637,3.47174 v 10.02071 h -3.12457 v -1.84633 q -0.78903,1.12042 -2.19351,1.72009 -1.40448,0.59966 -3.14035,0.59966 z m 19.23661,6.62788 q -1.75166,0 -3.15613,-0.31562 -1.40448,-0.29983 -2.39866,-0.88371 -0.9784,-0.58389 -1.49916,-1.40448 -0.52077,-0.82059 -0.52077,-1.83056 0,-0.80481 0.42608,-1.51494 0.44186,-0.71013 1.29402,-1.21511 0.86793,-0.52076 2.1146,-0.77325 -0.93106,-0.47342 -1.38869,-1.07308 -0.44186,-0.59967 -0.44186,-1.37292 0,-0.66279 0.37873,-1.24667 0.39452,-0.59967 1.10465,-1.05731 0.72591,-0.47341 1.70431,-0.77325 0.9784,-0.29983 2.16195,-0.34717 l 0.75747,1.51494 q -0.9784,-0.0158 -1.67275,0.15781 -0.67857,0.1578 -1.0573,0.45764 -0.36296,0.28405 -0.36296,0.69434 0,0.53655 0.61545,0.78904 0.61544,0.23671 1.73587,0.33139 l 2.68271,0.20515 q 1.97258,0.15781 3.36128,0.64701 1.40448,0.4892 2.14617,1.37291 0.75747,0.88372 0.75747,2.24086 0,1.15198 -0.63123,2.13038 -0.61544,0.99418 -1.78321,1.72009 -1.15199,0.72591 -2.76162,1.13621 -1.60962,0.4103 -3.56642,0.4103 z m 0.34717,-2.39866 q 2.35132,0 3.69267,-0.71013 1.35714,-0.69435 1.35714,-1.81478 0,-0.85215 -0.8995,-1.32557 -0.89949,-0.47342 -2.74583,-0.59966 l -2.87208,-0.22093 q -1.00996,0.0789 -1.75165,0.37873 -0.72591,0.29983 -1.10465,0.77325 -0.37873,0.47342 -0.37873,1.07309 0,0.72591 0.5681,1.27823 0.5681,0.55232 1.62541,0.85216 1.0573,0.31561 2.50912,0.31561 z m -0.11046,-9.65776 q -1.9568,0 -3.51909,-0.74169 -1.5465,-0.74169 -2.446,-2.00414 -0.8995,-1.26245 -0.8995,-2.82474 0,-1.56228 0.8995,-2.82474 0.91528,-1.26245 2.46178,-2.00414 1.56229,-0.74169 3.50331,-0.74169 1.94102,0 3.48752,0.74169 1.5465,0.74169 2.446,2.00414 0.91528,1.26246 0.91528,2.82474 0,1.5465 -0.8995,2.80896 -0.8995,1.26245 -2.446,2.01992 -1.5465,0.74169 -3.5033,0.74169 z m 0,-2.60381 q 1.07308,0 1.90946,-0.36295 0.83637,-0.37874 1.30979,-1.04152 0.47342,-0.67857 0.47342,-1.56229 0,-1.32557 -1.04152,-2.14617 -1.02575,-0.83637 -2.65115,-0.83637 -1.08887,0 -1.92524,0.37873 -0.8206,0.37874 -1.29402,1.05731 -0.47342,0.66278 -0.47342,1.5465 0,1.3098 1.02575,2.14617 1.04152,0.82059 2.66693,0.82059 z m 2.43022,-5.31808 -1.29402,-2.41444 8.37953,-0.33139 -0.0316,2.87208 z m 10.06805,12.87701 v -15.62284 h 3.47174 v 15.62284 z m 1.73587,-18.41601 q -0.93106,0 -1.60963,-0.59967 -0.67856,-0.59966 -0.67856,-1.57806 0,-0.96262 0.67856,-1.56229 0.67857,-0.61544 1.60963,-0.61544 0.93106,0 1.60963,0.61544 0.67856,0.59967 0.67856,1.56229 0,0.9784 -0.67856,1.57806 -0.67857,0.59967 -1.60963,0.59967 z m 6.56476,18.41601 v -15.62284 h 3.47174 v 1.98836 q 0.9784,-1.30979 2.27241,-1.87789 1.29402,-0.58389 2.68271,-0.58389 2.14617,0 3.55065,0.85216 1.40448,0.85215 2.08305,2.19351 0.69434,1.34135 0.69434,2.76161 v 10.28898 h -3.47174 v -9.21589 q 0,-1.67275 -1.00996,-2.68272 -0.99418,-1.00996 -2.77739,-1.00996 -1.16777,0 -2.08305,0.52076 -0.8995,0.52077 -1.42026,1.45182 -0.52076,0.91528 -0.52076,2.14617 v 8.78982 z m 25.58041,7.1013 q -1.75165,0 -3.15613,-0.31562 -1.40447,-0.29983 -2.39865,-0.88371 -0.9784,-0.58389 -1.49917,-1.40448 -0.52076,-0.82059 -0.52076,-1.83056 0,-0.80481 0.42608,-1.51494 0.44186,-0.71013 1.29401,-1.21511 0.86794,-0.52076 2.11461,-0.77325 -0.93106,-0.47342 -1.3887,-1.07308 -0.44185,-0.59967 -0.44185,-1.37292 0,-0.66279 0.37873,-1.24667 0.39452,-0.59967 1.10465,-1.05731 0.72591,-0.47341 1.70431,-0.77325 0.9784,-0.29983 2.16195,-0.34717 l 0.75747,1.51494 q -0.9784,-0.0158 -1.67275,0.15781 -0.67857,0.1578 -1.05731,0.45764 -0.36295,0.28405 -0.36295,0.69434 0,0.53655 0.61544,0.78904 0.61545,0.23671 1.73588,0.33139 l 2.68271,0.20515 q 1.97258,0.15781 3.36128,0.64701 1.40447,0.4892 2.14616,1.37291 0.75747,0.88372 0.75747,2.24086 0,1.15198 -0.63122,2.13038 -0.61545,0.99418 -1.78321,1.72009 -1.15199,0.72591 -2.76162,1.13621 -1.60962,0.4103 -3.56643,0.4103 z m 0.34718,-2.39866 q 2.35132,0 3.69267,-0.71013 1.35714,-0.69435 1.35714,-1.81478 0,-0.85215 -0.8995,-1.32557 -0.8995,-0.47342 -2.74583,-0.59966 l -2.87208,-0.22093 q -1.00996,0.0789 -1.75165,0.37873 -0.72591,0.29983 -1.10465,0.77325 -0.37873,0.47342 -0.37873,1.07309 0,0.72591 0.5681,1.27823 0.5681,0.55232 1.62541,0.85216 1.0573,0.31561 2.50912,0.31561 z m -0.11047,-9.65776 q -1.9568,0 -3.51908,-0.74169 -1.5465,-0.74169 -2.446,-2.00414 -0.8995,-1.26245 -0.8995,-2.82474 0,-1.56228 0.8995,-2.82474 0.91528,-1.26245 2.46178,-2.00414 1.56228,-0.74169 3.5033,-0.74169 1.94102,0 3.48753,0.74169 1.5465,0.74169 2.446,2.00414 0.91528,1.26246 0.91528,2.82474 0,1.5465 -0.8995,2.80896 -0.8995,1.26245 -2.446,2.01992 -1.54651,0.74169 -3.50331,0.74169 z m 0,-2.60381 q 1.07309,0 1.90946,-0.36295 0.83638,-0.37874 1.3098,-1.04152 0.47342,-0.67857 0.47342,-1.56229 0,-1.32557 -1.04153,-2.14617 -1.02574,-0.83637 -2.65115,-0.83637 -1.08886,0 -1.92523,0.37873 -0.8206,0.37874 -1.29402,1.05731 -0.47342,0.66278 -0.47342,1.5465 0,1.3098 1.02574,2.14617 1.04153,0.82059 2.66693,0.82059 z m 2.43022,-5.31808 -1.29401,-2.41444 8.37953,-0.33139 -0.0316,2.87208 z"
     id="path4" /><path
     style="fill:#61dafb"
     d="m 351.93321,325.94894 q -2.5249,0 -4.43436,-1.02574 -1.90946,-1.04152 -2.98254,-2.90364 -1.05731,-1.86211 -1.05731,-4.3239 0,-1.79899 0.61545,-3.31393 0.61544,-1.53073 1.73587,-2.65115 1.12043,-1.12043 2.61959,-1.73587 1.51494,-0.61545 3.29815,-0.61545 1.94102,0 3.45597,0.69435 1.51494,0.67857 2.50912,1.90946 1.00996,1.23089 1.42026,2.88786 0.42608,1.64119 0.14202,3.56642 h -12.46671 q -0.0316,1.40448 0.61545,2.46179 0.647,1.04152 1.84633,1.6254 1.21511,0.58389 2.8563,0.58389 1.32557,0 2.55647,-0.39452 1.24667,-0.4103 2.25663,-1.19933 l 1.34135,2.49334 q -0.75747,0.61545 -1.83055,1.05731 -1.07309,0.42608 -2.24085,0.647 -1.16777,0.23671 -2.25664,0.23671 z m -4.93934,-10.06805 h 8.85294 q -0.0473,-1.76743 -1.1362,-2.77739 -1.07309,-1.00997 -3.06145,-1.00997 -1.92524,0 -3.20347,1.00997 -1.26245,1.00996 -1.45182,2.77739 z m 20.21502,10.06805 q -1.62541,0 -2.8563,-0.59966 -1.23089,-0.61545 -1.92524,-1.72009 -0.67857,-1.12043 -0.67857,-2.63537 0,-1.27823 0.64701,-2.30397 0.647,-1.04153 2.00414,-1.7201 1.37292,-0.67856 3.51909,-0.89949 2.14616,-0.23671 5.16027,0.0631 l 0.0631,2.39866 q -2.14617,-0.29983 -3.69267,-0.25249 -1.54651,0.0473 -2.54069,0.39451 -0.9784,0.3314 -1.45182,0.8995 -0.45764,0.55232 -0.45764,1.27823 0,1.13621 0.80482,1.75166 0.82059,0.61544 2.24085,0.61544 1.21511,0 2.17773,-0.44186 0.96262,-0.44185 1.51494,-1.24667 0.56811,-0.80481 0.56811,-1.89368 v -4.15031 q 0,-1.04152 -0.44186,-1.79899 -0.44186,-0.77325 -1.34136,-1.19933 -0.89949,-0.42608 -2.24085,-0.42608 -1.23089,0 -2.43022,0.37874 -1.19933,0.36295 -2.28819,1.15199 l -0.9784,-2.55647 q 1.4676,-0.99418 3.06144,-1.40448 1.59385,-0.41029 3.06145,-0.41029 2.17773,0 3.72423,0.69434 1.56229,0.67857 2.39866,2.06727 0.83637,1.37292 0.83637,3.47174 v 10.02071 h -3.12456 v -1.84633 q -0.78904,1.12042 -2.19351,1.72009 -1.40448,0.59966 -3.14035,0.59966 z m 18.3529,-0.0158 q -1.94102,0 -3.62955,-0.55232 -1.68853,-0.55232 -2.84052,-1.48338 l 1.3098,-2.54068 q 1.08886,0.85215 2.446,1.34135 1.37291,0.4892 2.69849,0.4892 1.53072,0 2.38288,-0.53654 0.85215,-0.53654 0.85215,-1.49916 0,-0.91528 -0.74169,-1.34136 -0.72591,-0.44186 -2.77739,-0.91528 -2.95099,-0.61544 -4.29234,-1.73587 -1.32558,-1.1362 -1.32558,-3.14035 0,-1.40447 0.77326,-2.47756 0.78903,-1.08886 2.16195,-1.70431 1.37291,-0.61544 3.17191,-0.61544 1.75165,0 3.29815,0.50498 1.54651,0.4892 2.68271,1.38869 l -1.23089,2.55647 q -0.58388,-0.52076 -1.35713,-0.8995 -0.77326,-0.37873 -1.64119,-0.58388 -0.85216,-0.22093 -1.70431,-0.22093 -1.32558,0 -2.16195,0.52076 -0.82059,0.50498 -0.82059,1.40448 0,0.93106 0.78903,1.37291 0.78903,0.44186 2.71427,0.88372 3.02988,0.66279 4.33968,1.76743 1.30979,1.10465 1.30979,3.06145 0,1.49916 -0.80481,2.61959 -0.80481,1.10464 -2.25663,1.72009 -1.43604,0.61544 -3.3455,0.61544 z m 10.32054,-0.45764 v -15.62284 h 3.47174 v 15.62284 z m 1.73587,-18.41601 q -0.93106,0 -1.60963,-0.59967 -0.67856,-0.59966 -0.67856,-1.57806 0,-0.96262 0.67856,-1.56229 0.67857,-0.61544 1.60963,-0.61544 0.93106,0 1.60963,0.61544 0.67857,0.59967 0.67857,1.56229 0,0.9784 -0.67857,1.57806 -0.67857,0.59967 -1.60963,0.59967 z m 13.69761,18.88943 q -2.5249,0 -4.43436,-1.02574 -1.90946,-1.04152 -2.98254,-2.90364 -1.05731,-1.86211 -1.05731,-4.3239 0,-1.79899 0.61545,-3.31393 0.61544,-1.53073 1.73587,-2.65115 1.12043,-1.12043 2.61959,-1.73587 1.51494,-0.61545 3.29815,-0.61545 1.94102,0 3.45597,0.69435 1.51494,0.67857 2.50912,1.90946 1.00996,1.23089 1.42026,2.88786 0.42608,1.64119 0.14202,3.56642 h -12.46671 q -0.0316,1.40448 0.61545,2.46179 0.647,1.04152 1.84633,1.6254 1.21511,0.58389 2.8563,0.58389 1.32557,0 2.55646,-0.39452 1.24668,-0.4103 2.25664,-1.19933 l 1.34135,2.49334 q -0.75747,0.61545 -1.83055,1.05731 -1.07309,0.42608 -2.24085,0.647 -1.16777,0.23671 -2.25664,0.23671 z m -4.93934,-10.06805 h 8.85294 q -0.0473,-1.76743 -1.1362,-2.77739 -1.07309,-1.00997 -3.06145,-1.00997 -1.92524,0 -3.20347,1.00997 -1.26245,1.00996 -1.45182,2.77739 z m 15.87534,9.59463 v -15.62284 h 3.47174 v 2.16195 q 0.88372,-1.4676 2.14617,-2.05148 1.26245,-0.59967 2.71427,-0.59967 0.47342,0 0.8995,0.0473 0.42607,0.0473 0.82059,0.14203 l -0.45764,3.58221 q -0.47342,-0.14203 -0.96262,-0.22093 -0.4892,-0.0789 -0.9784,-0.0789 -1.81477,0 -2.99832,1.12043 -1.18355,1.10465 -1.18355,3.0141 v 8.50577 z"
     id="path5" /></g>
</svg>
